<svg width="32" height="31" viewBox="0 0 32 31" fill="none" xmlns="http://www.w3.org/2000/svg">
<path fill-rule="evenodd" clip-rule="evenodd" d="M21.9414 5.54406L23.9404 3.99789C24.3844 3.65436 25.0014 3.60507 25.3964 3.99789L25.8651 4.46415L27.3707 5.98613L27.8642 6.45239C28.2592 6.84522 28.2096 7.45884 27.8642 7.9005L26.3097 9.88875C26.828 10.7725 27.223 11.7296 27.5188 12.7608L30.0113 13.0797C30.5787 13.1531 31.048 13.5459 31.048 14.1108V17.5722C31.048 18.1124 30.5792 18.5048 30.0113 18.5787L27.5188 18.8976C27.2224 19.9287 26.828 20.8858 26.3097 21.7696L27.8642 23.7578C28.2096 24.2241 28.2592 24.8131 27.8642 25.206L27.3707 25.6722L25.8651 27.1942L25.3964 27.6605C25.0014 28.0533 24.3845 28.004 23.9404 27.6605L21.9414 26.1143C21.0529 26.6298 20.0658 27.0468 19.0538 27.3169L18.7332 29.8207C18.6594 30.3609 18.2644 30.8271 17.6965 30.8271H14.2163C13.6489 30.8271 13.254 30.3609 13.2044 29.8207L12.8838 27.3169C11.8471 27.0468 10.8848 26.6298 9.97205 26.1143L7.97303 27.6605C7.52902 28.004 6.93633 28.0533 6.51707 27.6605L6.0483 27.1942L4.54278 25.6722L4.074 25.206C3.67905 24.8131 3.72861 24.2241 4.074 23.7578L5.60423 21.7696C5.08588 20.8859 4.69093 19.9287 4.4199 18.8976L1.90252 18.5787C1.33513 18.5053 0.890625 18.1124 0.890625 17.5722V14.1108C0.890625 13.5464 1.33463 13.1536 1.90252 13.0797L4.4199 12.7608C4.69146 11.7297 5.08641 10.7725 5.60423 9.88875L4.074 7.9005C3.72861 7.45889 3.67905 6.84527 4.074 6.45239L4.54278 5.98613L6.0483 4.46415L6.51707 3.99789C6.93681 3.60507 7.52897 3.65436 7.97303 3.99789L9.97205 5.54406C10.8853 5.02851 11.8476 4.61155 12.8838 4.34146L13.2044 1.86236V1.71447L13.2292 1.68982V1.64053L13.254 1.61588V1.54193L13.2788 1.51729V1.49264L13.3035 1.46799V1.44334L13.3283 1.4187V1.39405L13.3531 1.3694V1.34475L13.3779 1.3201V1.29546L13.4027 1.27081H13.4274V1.24616L13.4522 1.22151V1.19687H13.477L13.5018 1.17222V1.14757L13.5266 1.12292H13.5514V1.09827L13.5761 1.07363H13.6009V1.04898L13.6257 1.02433H13.6505L13.6753 0.999683C13.7 0.975035 13.7248 0.975035 13.7248 0.975035L13.7496 0.950387H13.7744L13.7992 0.92574H13.8239V0.901092H13.8735L13.8983 0.876444H13.9479L13.9726 0.851796H14.047C14.0718 0.851796 14.0718 0.827148 14.0965 0.827148H14.1461H17.7007C18.2681 0.827148 18.6631 1.29341 18.7374 1.85825L19.058 4.33736C20.0699 4.60746 21.057 5.02442 21.9456 5.53996L21.9414 5.54406ZM15.9696 11.3122C17.2035 11.3122 18.3388 11.8277 19.1777 12.6375C19.9918 13.4473 20.5102 14.5765 20.5102 15.8283C20.5102 17.0802 19.9918 18.2093 19.1777 19.0191C18.3387 19.8289 17.2034 20.3444 15.9696 20.3444C14.7109 20.3444 13.5756 19.8289 12.7615 19.0191C11.9225 18.2093 11.429 17.0802 11.429 15.8283C11.429 14.5765 11.9226 13.4473 12.7615 12.6375C13.5757 11.8277 14.711 11.3122 15.9696 11.3122ZM17.6474 14.1595C17.2277 13.7179 16.6107 13.4478 15.9696 13.4478C15.3031 13.4478 14.7109 13.7179 14.2669 14.1595C13.8471 14.577 13.5761 15.1659 13.5761 15.8283C13.5761 16.4912 13.8477 17.0802 14.2669 17.5218C14.7109 17.9393 15.3036 18.2089 15.9696 18.2089C16.6113 18.2089 17.2283 17.9388 17.6474 17.5218C18.0914 17.0802 18.3382 16.4907 18.3382 15.8283C18.3382 15.1654 18.0914 14.5764 17.6474 14.1595ZM15.9696 7.01675C20.8557 7.01675 24.8041 10.9685 24.8041 15.8283C24.8041 20.6881 20.8557 24.6399 15.9696 24.6399C11.0835 24.6399 7.11032 20.6881 7.11032 15.8283C7.11032 10.9685 11.0835 7.01675 15.9696 7.01675Z" fill="#DD052B"/>
</svg>
