<svg width="33" height="31" viewBox="0 0 33 31" fill="none" xmlns="http://www.w3.org/2000/svg">
<path d="M31.7408 29.4646H30.7757V28.3817C30.7757 28.0745 30.5269 27.8277 30.217 27.8277L2.27299 27.8275C1.96312 27.8275 1.71429 28.0742 1.71429 28.3815V29.4644L0.754049 29.4646C0.474579 29.4646 0.246094 29.6912 0.246094 29.9683C0.246094 30.2454 0.474579 30.472 0.754049 30.472H31.7406C32.0201 30.472 32.2486 30.2454 32.2486 29.9683C32.2488 29.6912 32.0201 29.4646 31.7408 29.4646Z" fill="#DD052B"/>
<path d="M3.6543 12.8884C3.6543 13.1655 3.88278 13.3921 4.16225 13.3921H28.3369C28.6164 13.3921 28.8448 13.1655 28.8448 12.8884C28.8448 12.6113 28.6164 12.3848 28.3369 12.3848H4.16225C3.87787 12.3848 3.6543 12.6113 3.6543 12.8884Z" fill="#DD052B"/>
<path d="M16.2471 3.17749C11.3247 3.17749 7.24031 6.71842 6.44824 11.3828H26.0459C25.2484 6.71854 21.1693 3.17749 16.2471 3.17749Z" fill="#DD052B"/>
<path d="M26.9194 23.4554V14.4042H5.57422V23.4554H7.97181V18.5947C7.97181 17.4564 8.9014 16.5346 10.0495 16.5346C11.1975 16.5346 12.1271 17.4564 12.1271 18.5947V23.4554H14.1692V18.5947C14.1692 17.4564 15.0988 16.5346 16.2468 16.5346C17.3949 16.5346 18.3245 17.4564 18.3245 18.5947V23.4554H20.3666V18.5947C20.3666 17.4564 21.2961 16.5346 22.4442 16.5346C23.5922 16.5346 24.5218 17.4564 24.5218 18.5947V23.4554H26.9194Z" fill="#DD052B"/>
<path d="M16.9837 2.20484V0.975834C16.9837 0.698724 16.7552 0.472168 16.4757 0.472168C16.1963 0.472168 15.9678 0.698724 15.9678 0.975834V2.17955C16.0644 2.17955 16.1558 2.16448 16.2472 2.16448C16.4958 2.16958 16.7398 2.18976 16.9837 2.20483L16.9837 2.20484Z" fill="#DD052B"/>
<path d="M3.6537 26.8205H28.8443V25.0122C28.8443 24.705 28.5955 24.4583 28.2856 24.4583H4.20737C3.8975 24.4583 3.64867 24.705 3.64867 25.0122L3.64844 26.8205H3.6537Z" fill="#DD052B"/>
</svg>
