<svg width="32" height="31" viewBox="0 0 32 31" fill="none" xmlns="http://www.w3.org/2000/svg">
<path d="M16.1754 0.836427C15.784 0.836427 15.3959 0.853402 15.0122 0.879848C15.4881 1.41785 15.7752 2.14174 15.7752 2.9087C15.7752 4.26225 14.8702 5.43926 13.6288 5.7227C13.3774 8.55126 10.9471 10.7629 7.98826 10.7652C7.61535 10.8087 7.3475 11.0589 7.20875 11.381C7.09849 11.6376 7.1053 11.887 7.17668 12.0512C7.95939 12.2845 8.66716 12.9236 8.81067 13.8306C9.25936 14.4022 10.2778 14.6062 11.1544 14.1539L11.1548 14.1535C11.1716 14.144 11.1889 14.1353 11.2065 14.1274C11.2406 14.1109 11.2763 14.0974 11.3132 14.0876C11.5341 14.0074 11.7619 13.9589 11.9892 13.9451C12.7266 13.9001 13.4568 14.1961 13.9111 14.7882C13.9641 14.8446 14.005 14.9106 14.0322 14.9824C14.0511 15.0286 14.0639 15.0771 14.0703 15.1265C14.161 15.5176 14.5623 15.9728 15.0142 16.0087C16.5243 16.03 17.7012 17.3448 17.7012 18.8878C17.7012 20.2472 16.7882 21.4297 15.5384 21.7068C15.3058 23.4436 14.0066 24.8598 12.3337 25.1657C12.3185 26.4383 11.4616 27.5348 10.4496 28.0661H10.4488C10.2607 28.2204 9.99606 28.2469 9.78034 28.132C9.7639 28.1237 9.74746 28.1143 9.73183 28.1044C8.64476 27.5028 7.99837 26.4043 7.77541 25.2336C7.55768 24.0877 7.7289 22.8455 8.33397 21.807C8.51441 20.9173 7.94542 19.9807 7.03637 19.7169C7.02354 19.7118 7.0107 19.7059 6.99827 19.7C4.90954 19.1051 3.59079 17.064 4.0635 15.06C4.02019 13.4958 2.81167 12.265 1.37652 12.2472C1.09143 13.3946 0.939453 14.5939 0.939453 15.8285C0.939453 24.1188 7.7537 30.8271 16.1748 30.8271C21.0175 30.8271 25.328 28.6088 28.1182 25.1475C29.0477 23.6523 28.4338 21.6843 26.6439 20.849C24.815 20.3122 23.7636 18.3745 24.2276 16.4972C24.2584 16.2703 24.2472 16.0346 24.1847 15.799C23.9332 14.8426 22.9893 14.2986 22.0426 14.5489C21.3746 14.7976 20.6204 14.9097 19.8773 14.8319C17.6764 14.8149 15.884 13.0454 15.884 10.8749C15.884 8.73232 17.6307 6.97701 19.7923 6.91971V6.91892C19.8348 6.91419 19.8778 6.91419 19.9203 6.91892C21.2487 6.95721 22.4308 7.69495 23.2728 8.78357C25.0572 10.5488 27.8816 10.5563 29.6384 8.80489C29.1299 7.86269 28.5229 6.98086 27.8304 6.17207C26.5697 5.17066 25.2753 4.76486 23.8639 4.77598C22.4413 4.79295 20.8902 5.24491 19.2362 6.04182V6.04221H19.2186C18.2951 6.53798 17.1315 6.11879 16.6082 5.19396C16.0829 4.26518 16.2998 3.07113 17.1896 2.50708H17.19C17.2016 2.49839 17.2136 2.4901 17.2261 2.4826C17.2305 2.4826 17.2349 2.4826 17.2393 2.46563L17.2389 2.46523H17.2433H17.2477C17.3119 2.42813 17.3824 2.40287 17.4558 2.39063C18.3239 2.19011 19.0959 1.84236 19.7503 1.3841C19.8004 1.34936 19.8485 1.31305 19.8974 1.27792C18.7058 0.983844 17.4587 0.827148 16.174 0.827148L16.1754 0.836427ZM13.0742 1.14707C7.7288 2.23294 3.41225 6.07087 1.71595 11.0925C3.68355 11.2863 5.21448 13.0041 5.26262 15.0531V15.0527C5.26944 15.115 5.26543 15.1782 5.2518 15.2394C5.25019 15.25 5.24779 15.2603 5.24538 15.2706C4.87929 16.6608 5.80234 18.1571 7.36696 18.5826V18.583C7.38781 18.589 7.40826 18.5961 7.42831 18.6044C8.9188 19.0654 9.83013 20.589 9.50216 22.0835C9.49534 22.1367 9.48131 22.1888 9.46046 22.2382C9.44281 22.2844 9.41916 22.3282 9.39069 22.3684C8.93397 23.1362 8.78561 24.1281 8.95482 25.0182C9.10479 25.8065 9.48973 26.4921 10.0667 26.9164C10.6875 26.4941 11.218 25.6643 11.1133 24.8762V24.8766C10.9821 24.5817 11.1157 24.2375 11.4128 24.1037C11.4918 24.0646 11.5784 24.0433 11.6666 24.0413C11.6979 24.039 11.7292 24.039 11.7604 24.0413C13.1824 23.9841 14.3656 22.7364 14.3784 21.1689C14.376 20.8433 14.6423 20.5772 14.9731 20.5745C14.998 20.5733 15.0232 20.5733 15.0485 20.5745C15.836 20.5346 16.5024 19.8237 16.5024 18.8788C16.5024 17.9121 15.8055 17.1898 14.9944 17.18L14.994 17.1803C14.9856 17.18 14.9767 17.1796 14.9683 17.1788C14.9603 17.1784 14.9527 17.178 14.9447 17.1772H14.9338C14.9294 17.1772 14.923 17.1756 14.9166 17.1772C14.9054 17.1776 14.8941 17.1776 14.8833 17.1772C13.8504 17.0797 13.1334 16.2966 12.9165 15.4491C12.6463 15.1471 12.1515 15.0243 11.7043 15.1988C10.3282 15.9054 8.61598 15.6342 7.78996 14.4528V14.4532C7.72259 14.3794 7.67528 14.2902 7.65202 14.1938C7.63798 14.1445 7.63077 14.0936 7.63036 14.0427C7.57342 13.6314 7.16082 13.2702 6.7863 13.1648V13.1644C6.68365 13.1589 6.5842 13.1269 6.49759 13.0724C6.41098 13.0227 6.3384 12.9524 6.28668 12.868C5.83076 12.3023 5.83678 11.5405 6.10424 10.9176C6.38131 10.2731 6.9912 9.6999 7.82363 9.5934C7.84889 9.5859 7.87496 9.58037 7.90142 9.57642C7.90784 9.57563 7.91465 9.57484 7.92107 9.57445H7.94272H7.94713C10.4232 9.59379 12.3952 7.71374 12.4505 5.3292L12.4501 5.32959C12.3787 5.04579 12.5287 4.7533 12.8034 4.64159H12.8098H12.823C12.8916 4.61357 12.965 4.59817 13.0396 4.59659C13.0676 4.59462 13.0965 4.59462 13.1246 4.59659C13.9117 4.55475 14.5773 3.84504 14.5773 2.90089C14.5773 1.94607 13.8583 1.16296 13.0752 1.13962L13.0742 1.14707ZM21.2791 1.6981C21.0136 1.94085 20.7293 2.15716 20.4466 2.35531C19.6804 2.89174 18.7858 3.29711 17.7954 3.53394C17.5255 3.74432 17.4205 4.20892 17.6562 4.62618C17.9069 5.06984 18.3447 5.18629 18.6571 5.00787L18.6575 5.00747H18.6639C18.6779 4.99958 18.6924 4.99208 18.7072 4.98497V4.98379C20.463 4.1379 22.178 3.61094 23.8522 3.59791C24.2788 3.59791 24.7014 3.62554 25.1197 3.69343C23.9529 2.85938 22.6609 2.18477 21.2763 1.70126L21.2791 1.6981ZM19.9487 8.10009H19.9491C19.9331 8.10049 19.9174 8.10049 19.9018 8.10009C18.3384 8.10009 17.0833 9.33632 17.0833 10.8773C17.0833 12.4061 18.3183 13.6336 19.8637 13.6538C19.8998 13.6507 19.9359 13.6507 19.972 13.6538C20.5133 13.7166 21.1192 13.6294 21.626 13.4399C21.6428 13.4336 21.6597 13.4277 21.6769 13.4229C21.705 13.413 21.7339 13.4055 21.7627 13.4C22.1405 13.3045 22.521 13.2871 22.8862 13.3377C24.035 13.4955 25.0367 14.3237 25.3467 15.5027C25.4449 15.8757 25.4654 16.2531 25.4204 16.6163C25.4188 16.6443 25.4152 16.6723 25.4096 16.6996C25.4048 16.7296 25.3976 16.7592 25.388 16.7884C25.0732 18.0902 25.8042 19.3777 26.9979 19.7211H26.9983C27.0208 19.7262 27.0429 19.7326 27.0649 19.7405C27.1074 19.7543 27.1483 19.7728 27.1868 19.7961C28.5124 20.4269 29.3774 21.5822 29.6456 22.8453C30.7724 20.7521 31.4115 18.364 31.4115 15.8276C31.4115 13.7257 30.9728 11.7257 30.1813 9.91032C27.943 11.8323 24.5303 11.7178 22.3984 9.58467V9.58428C22.3719 9.55823 22.3478 9.52981 22.3266 9.49902C21.667 8.64089 20.8266 8.1384 19.9476 8.09222L19.9487 8.10009Z" fill="#DD052B"/>
</svg>
