<svg width="31" height="31" viewBox="0 0 31 31" fill="none" xmlns="http://www.w3.org/2000/svg">
<path fill-rule="evenodd" clip-rule="evenodd" d="M15.4257 1.50173C13.0454 1.50173 11.1164 3.43077 11.1164 5.81104C11.1164 6.8255 11.467 7.75769 12.0531 8.49373C12.6269 7.20177 13.9211 6.30048 15.4257 6.30048C16.9305 6.30048 18.2245 7.20154 18.7982 8.49373C19.3844 7.75769 19.735 6.8255 19.735 5.81104C19.735 3.43077 17.806 1.50173 15.4257 1.50173ZM5.6304 19.7768C6.6602 19.7768 7.49519 20.6119 7.49519 21.6416C7.49519 22.6714 6.66014 23.5064 5.6304 23.5064C4.60061 23.5064 3.76562 22.6713 3.76562 21.6416C3.76539 20.6118 4.60067 19.7768 5.6304 19.7768ZM5.6304 23.7656C7.13519 23.7656 8.42919 24.6667 9.00296 25.9589C9.58907 25.2228 9.93971 24.2906 9.93971 23.2762C9.93971 20.8959 8.01067 18.9669 5.6304 18.9669C3.25014 18.9667 1.3211 20.8957 1.3211 23.276C1.3211 24.2904 1.67175 25.2226 2.25785 25.9586C2.83206 24.6672 4.12585 23.7656 5.6304 23.7656V23.7656ZM15.4257 2.31185C16.4555 2.31185 17.2905 3.1469 17.2905 4.17664C17.2905 5.20643 16.4554 6.04142 15.4257 6.04142C14.396 6.04142 13.5609 5.20638 13.5609 4.17664C13.5609 3.14684 14.396 2.31185 15.4257 2.31185ZM25.221 19.7771C26.2508 19.7771 27.0858 20.6121 27.0858 21.6418C27.0858 22.6716 26.2507 23.5066 25.221 23.5066C24.1912 23.5066 23.3562 22.6716 23.3562 21.6418C23.3562 20.612 24.191 19.7771 25.221 19.7771ZM25.221 23.7659C26.7258 23.7659 28.0198 24.6669 28.5935 25.9591C29.1796 25.2231 29.5303 24.2909 29.5303 23.2764C29.5303 20.8962 27.6012 18.9671 25.221 18.9671C22.8407 18.9671 20.9117 20.8962 20.9117 23.2764C20.9117 24.2909 21.2623 25.2231 21.8484 25.9591C22.4224 24.6674 23.7167 23.7659 25.221 23.7659ZM5.62982 10.0657C6.68723 10.0657 7.54493 10.9231 7.54493 11.9808C7.54493 13.0382 6.68753 13.8959 5.62982 13.8959C4.5724 13.8959 3.71471 13.0385 3.71471 11.9808C3.71494 10.9231 4.57188 10.0657 5.62982 10.0657ZM25.221 10.0657C26.2784 10.0657 27.1361 10.9231 27.1361 11.9808C27.1361 13.0382 26.2787 13.8959 25.221 13.8959C24.1636 13.8959 23.3059 13.0385 23.3059 11.9808C23.3059 10.9231 24.1633 10.0657 25.221 10.0657ZM15.4257 26.8538C16.4831 26.8538 17.3408 27.7112 17.3408 28.769C17.3408 29.8264 16.4834 30.6841 15.4257 30.6841C14.3683 30.6841 13.5106 29.8267 13.5106 28.769C13.5106 27.7113 14.3682 26.8538 15.4257 26.8538ZM19.5772 20.5778L15.91 18.4606V25.9217C15.7528 25.8954 15.5909 25.8812 15.4257 25.8812C15.2604 25.8812 15.0986 25.8951 14.9413 25.9219V18.4597L11.2739 20.5771C11.1335 20.2843 10.971 20.0043 10.7884 19.7387L14.4563 17.6213L7.85545 13.8208C8.06095 13.5726 8.22553 13.2896 8.33959 12.9817L14.9416 16.7831V12.0474C15.1013 12.0598 15.2632 12.066 15.4259 12.066C15.5891 12.066 15.7505 12.0598 15.9103 12.0474V16.7831L22.5123 12.9817C22.6259 13.2896 22.7909 13.5726 22.9964 13.8208L16.3968 17.6209L20.064 19.7383C19.8811 20.0041 19.7184 20.2848 19.5778 20.5779L19.5772 20.5778ZM15.4257 0.529053C18.3429 0.529053 20.7079 2.89399 20.7079 5.81121C20.7079 8.72844 18.3429 11.0934 15.4257 11.0934C12.5085 11.0934 10.1435 8.72844 10.1435 5.81121C10.1435 2.89399 12.5085 0.529053 15.4257 0.529053ZM25.221 17.9943C22.3037 17.9943 19.9388 20.3592 19.9388 23.2764C19.9388 26.1936 22.3037 28.5586 25.221 28.5586C28.1382 28.5586 30.5031 26.1936 30.5031 23.2764C30.5031 20.3592 28.1382 17.9943 25.221 17.9943ZM5.62982 17.9943C2.71259 17.9943 0.347656 20.3592 0.347656 23.2764C0.347656 26.1936 2.71259 28.5586 5.62982 28.5586C8.54705 28.5586 10.912 26.1936 10.912 23.2764C10.9118 20.3592 8.54705 17.9943 5.62982 17.9943Z" fill="#DD052B"/>
</svg>
