<svg width="23" height="31" viewBox="0 0 23 31" fill="none" xmlns="http://www.w3.org/2000/svg">
<path d="M1.08707 0.948843C0.836292 0.947797 0.595391 1.04656 0.418146 1.22338C0.240669 1.39999 0.141538 1.64 0.142586 1.88982V30.0132C0.143006 30.2622 0.242982 30.5007 0.420039 30.6761C0.597305 30.8516 0.837157 30.9498 1.08708 30.9487H14.0838V23.7861C14.0819 23.2682 14.5013 22.847 15.0212 22.8451H22.2105V1.88976C22.2113 1.64117 22.1132 1.40241 21.9374 1.22578C21.7616 1.04938 21.5226 0.949571 21.2731 0.94873L1.08707 0.948843ZM5.16481 5.9106C5.19737 5.90893 5.22992 5.90893 5.26227 5.9106H17.0901C17.4263 5.91102 17.7367 6.08993 17.9048 6.38016C18.0728 6.67039 18.0728 7.02759 17.9048 7.31782C17.7367 7.60805 17.4263 7.78696 17.0901 7.78738H5.26227C4.92601 7.80433 4.60635 7.64132 4.42322 7.35988C4.24029 7.07823 4.22159 6.72081 4.37449 6.422C4.52761 6.12319 4.82877 5.92839 5.16481 5.9106ZM5.26267 12.0149L17.0905 12.0151C17.3438 12.0095 17.5885 12.1057 17.7695 12.2821C17.9506 12.4585 18.0526 12.7002 18.0526 12.9526C18.0526 13.2047 17.9506 13.4464 17.7695 13.6228C17.5885 13.7993 17.3438 13.8955 17.0905 13.8901H5.26267C5.00958 13.8955 4.76469 13.7992 4.58364 13.6228C4.4028 13.4464 4.30073 13.2048 4.30073 12.9526C4.30073 12.7002 4.4028 12.4586 4.58364 12.2821C4.76468 12.1057 5.00958 12.0095 5.26267 12.0151V12.0149ZM17.184 18.7308V18.731H17.1952C17.4497 18.7371 17.6911 18.8457 17.8639 19.0321C18.0368 19.2188 18.1263 19.4669 18.1122 19.7203C18.0979 19.9737 17.9813 20.2106 17.7887 20.3768C17.5962 20.5431 17.3441 20.6243 17.0904 20.6021H5.2626C4.94272 20.5954 4.64825 20.4274 4.48087 20.1558C4.31326 19.8844 4.29562 19.5467 4.43403 19.2592C4.57244 18.9719 4.84779 18.7743 5.16516 18.7346C5.19772 18.7329 5.23027 18.7329 5.26262 18.7346H17.0904C17.1217 18.7319 17.1528 18.7306 17.1841 18.731L17.184 18.7308ZM15.9657 24.7197V30.3937L21.6629 24.7197H15.9657Z" fill="#DD052B"/>
</svg>
