<svg width="16" height="18" viewBox="0 0 16 18" fill="none" xmlns="http://www.w3.org/2000/svg">
<path d="M2.64262 2.19255C4.06303 0.835119 5.98541 0.0888407 7.97751 0.121643C9.96961 0.154442 11.865 0.963249 13.2372 2.36658C14.6097 3.76991 15.3441 5.64993 15.2759 7.58442C15.2075 9.51908 14.3421 11.3458 12.8739 12.6547C11.6878 13.7228 11.0153 15.2241 11.0193 16.7956V17.1527H8.91127L10.5611 10.3096C10.7427 10.0524 10.8541 9.93829 11.0445 9.93829C11.2185 9.93829 11.3596 9.8012 11.3596 9.63217C11.3596 9.46293 11.2185 9.32605 11.0445 9.32605C10.4816 9.32605 10.1991 9.73428 9.99298 10.0325C9.78344 10.3354 9.67022 10.4681 9.46451 10.4681C9.25902 10.4681 9.14581 10.3354 8.93649 10.0325C8.73032 9.73428 8.44808 9.32605 7.88541 9.32605C7.32275 9.32605 7.04004 9.73428 6.83365 10.0325C6.62411 10.3354 6.51067 10.4683 6.30495 10.4683C6.09924 10.4683 5.9858 10.3356 5.77626 10.0325C5.57009 9.73428 5.28762 9.32605 4.72449 9.32605H4.72494C4.55074 9.32605 4.40984 9.46293 4.40984 9.63217C4.40984 9.80119 4.55073 9.93829 4.72494 9.93829C4.9122 9.93829 5.02316 10.0489 5.19984 10.2973L6.78907 17.1522H4.67788V16.7951C4.66842 15.2083 3.98265 13.6963 2.7839 12.6188C1.29931 11.2773 0.44448 9.40429 0.417975 7.43487C0.391192 5.4654 1.19513 3.57121 2.6428 2.19234L2.64262 2.19255ZM13.7042 7.3365C13.7042 7.50553 13.8453 7.64263 14.0193 7.64263C14.1933 7.64263 14.3344 7.50553 14.3344 7.3365C14.3344 7.24423 14.3324 7.15086 14.3281 7.05903V7.05881C14.3256 6.97703 14.2894 6.89962 14.2275 6.84409C14.1658 6.78833 14.0837 6.75903 13.9995 6.76253C13.9156 6.76603 13.8363 6.80211 13.7796 6.86268C13.7231 6.92346 13.6939 7.00349 13.6986 7.08528C13.7024 7.16837 13.7042 7.25299 13.7042 7.33651L13.7042 7.3365ZM8.73778 1.71199C9.8746 1.88276 10.9347 2.37453 11.7864 3.12607C12.6378 3.87738 13.2433 4.85546 13.5273 5.93844C13.5699 6.10243 13.7409 6.20192 13.9097 6.16081C14.0785 6.11971 14.1811 5.95331 14.1386 5.78931C13.8242 4.58912 13.1535 3.50542 12.21 2.67277C11.2662 1.84012 10.0913 1.29547 8.83161 1.10655C8.74833 1.09321 8.66325 1.11289 8.59506 1.16099C8.52686 1.20932 8.48139 1.28192 8.46879 1.36304C8.45619 1.44394 8.47757 1.52638 8.52798 1.59197C8.57863 1.65757 8.65403 1.70086 8.73753 1.71201L8.73778 1.71199Z" fill="#DD052B"/>
</svg>
