<svg width="19" height="15" viewBox="0 0 19 15" fill="none" xmlns="http://www.w3.org/2000/svg">
<path d="M9.50781 0.936523C9.50781 0.660381 9.28395 0.436523 9.00781 0.436523C8.73167 0.436523 8.50781 0.660381 8.50781 0.936523L9.50781 0.936523ZM8.65426 11.2901C8.84952 11.4853 9.1661 11.4853 9.36137 11.2901L12.5433 8.1081C12.7386 7.91283 12.7386 7.59625 12.5433 7.40099C12.3481 7.20573 12.0315 7.20573 11.8362 7.40099L9.00781 10.2294L6.17939 7.40099C5.98412 7.20573 5.66754 7.20573 5.47228 7.40099C5.27702 7.59625 5.27702 7.91283 5.47228 8.1081L8.65426 11.2901ZM8.50781 0.936523L8.50781 10.9365L9.50781 10.9365L9.50781 0.936523L8.50781 0.936523Z" fill="white"/>
<line x1="0.507812" y1="14.4365" x2="17.5078" y2="14.4365" stroke="white" stroke-linecap="round"/>
</svg>
