<svg width="15" height="9" viewBox="0 0 15 9" fill="none" xmlns="http://www.w3.org/2000/svg">
<path d="M7.54817 8.52006H7.50187C7.34606 8.52006 7.20565 8.45653 7.10236 8.35834L7.09778 8.35398L7.09784 8.35393L0.643476 1.89957C0.421014 1.67711 0.420835 1.31714 0.643476 1.09465L7.54817 8.52006ZM7.54817 8.52006L7.55489 8.51748L7.54817 8.52006ZM1.44835 1.0946C1.22589 0.872008 0.866041 0.872191 0.643577 1.09455L14.1806 1.27142L14.3574 1.09475C14.3574 1.09471 14.3574 1.09468 14.3573 1.09465C14.1348 0.872007 13.7749 0.872186 13.5524 1.09465L7.50201 7.14506L1.4485 1.09475C1.44846 1.09471 1.44839 1.09464 1.44835 1.0946Z" fill="#BABABA" stroke="#BABABA" stroke-width="0.5"/>
</svg>
