<svg width="24" height="16" viewBox="0 0 24 16" fill="none" xmlns="http://www.w3.org/2000/svg">
<path d="M23.9998 13.0459C23.9376 13.0192 23.8712 12.9993 23.8142 12.9645C21.2403 11.3888 18.6669 9.81133 16.0936 8.23387C16.0413 8.20199 15.9914 8.1667 15.9121 8.11432C18.6205 6.38658 21.3102 4.67136 24.0004 2.95557V13.0459H23.9998Z" fill="white"/>
<path d="M12.0047 0.00025301C15.4661 0.00025301 18.9282 -0.000316263 22.3897 0.00025301C23.1192 0.00025301 23.6743 0.368573 23.8898 0.982819C23.9474 1.1462 23.9392 1.25436 23.7594 1.36879C20.3573 3.53089 16.961 5.70153 13.5642 7.87103C13.0884 8.17502 12.6097 8.4756 12.138 8.78585C12.0299 8.85701 11.9577 8.8553 11.849 8.78585C7.95876 6.29756 4.06616 3.81211 0.1712 1.32951C0.0578343 1.25721 0.0408001 1.19288 0.0731063 1.07163C0.224065 0.500075 0.746838 0.0628731 1.36242 0.00879211C1.47108 -0.000316262 1.58093 0.00025301 1.69018 0.00025301C5.12874 0.00025301 8.56671 0.00025301 12.0047 0.00025301Z" fill="white"/>
<path d="M11.9837 15.9999C8.5211 15.9999 5.05846 16.0005 1.59582 15.9999C0.866283 15.9999 0.310029 15.6293 0.0968077 15.0145C0.0421808 14.8568 0.0480547 14.7566 0.224858 14.649C3.24578 12.8069 6.26142 10.9567 9.27471 9.10204C9.41745 9.01437 9.51143 9.02462 9.64359 9.11172C10.2457 9.50565 10.8583 9.88422 11.4592 10.2793C11.8199 10.5167 12.16 10.5201 12.5218 10.2827C13.1362 9.87967 13.7618 9.49199 14.3773 9.09065C14.4919 9.01608 14.5718 9.01892 14.6869 9.08951C17.7207 10.9545 20.7563 12.8165 23.7961 14.6729C23.9329 14.7566 23.9423 14.8363 23.9047 14.9661C23.742 15.5246 23.2151 15.9458 22.6066 15.9925C22.4979 16.0011 22.3881 15.9994 22.2788 15.9994C18.8473 15.9994 15.4158 15.9994 11.9843 15.9994L11.9837 15.9999Z" fill="white"/>
<path d="M0 2.95898C2.70139 4.68388 5.37282 6.39 8.08184 8.11945C5.38163 9.77433 2.70432 11.4144 0 13.0721V2.95898Z" fill="white"/>
</svg>
