<svg width="28" height="37" viewBox="0 0 28 37" fill="none" xmlns="http://www.w3.org/2000/svg">
<path d="M27.139 9.34509L18.2466 0.90199C18.1359 0.79933 17.9899 0.738281 17.836 0.738281H1.39357C0.734175 0.738281 0.197266 1.25588 0.197266 1.88777V35.0803C0.197266 35.7159 0.734202 36.2298 1.39357 36.2298H26.1202C26.7757 36.2298 27.3126 35.7122 27.3126 35.0803V9.74841C27.3126 9.5963 27.2493 9.45151 27.1389 9.34507L27.139 9.34509ZM18.4321 2.661L25.4175 9.29601L18.4321 9.29576V2.661ZM1.37006 35.0806V1.88804C1.37006 1.88047 1.38183 1.86912 1.39387 1.86912H17.2596V9.86278C17.2596 10.1748 17.5241 10.426 17.8439 10.426H26.1361L26.1165 35.0999L1.37006 35.0806ZM4.61574 8.1001C4.61574 7.78807 4.88028 7.53683 5.20004 7.53683H10.8191C11.1427 7.53683 11.4034 7.78807 11.4034 8.1001C11.4034 8.41212 11.1388 8.66336 10.8191 8.66336H5.20426C4.88032 8.66336 4.61578 8.41213 4.61578 8.1001H4.61574ZM22.6418 14.7842C22.6418 15.0962 22.3772 15.3475 22.0575 15.3475H5.20437C4.88069 15.3475 4.62007 15.0962 4.62007 14.7842C4.62007 14.4722 4.88461 14.2209 5.20437 14.2209H22.0575C22.3775 14.2171 22.642 14.4722 22.642 14.7842H22.6418ZM22.6418 18.4193C22.6418 18.7313 22.3772 18.9825 22.0575 18.9825L5.20437 18.9828C4.88069 18.9828 4.62007 18.7316 4.62007 18.4195C4.62007 18.1075 4.88461 17.8563 5.20437 17.8563H22.0575C22.3775 17.856 22.642 18.1072 22.642 18.4193H22.6418ZM22.6418 22.0584C22.6418 22.3704 22.3772 22.6216 22.0575 22.6216H5.20437C4.88069 22.6216 4.62007 22.3704 4.62007 22.0584C4.62007 21.7463 4.88461 21.4951 5.20437 21.4951H22.0575C22.3775 21.4951 22.642 21.7463 22.642 22.0584H22.6418ZM22.6418 25.6974C22.6418 26.0095 22.3772 26.2607 22.0575 26.2607H5.20437C4.88069 26.2607 4.62007 26.0095 4.62007 25.6974C4.62007 25.3854 4.88461 25.1342 5.20437 25.1342H22.0575C22.3775 25.1301 22.642 25.3852 22.642 25.6974H22.6418ZM10.6177 29.5038C10.6177 29.8158 10.3532 30.067 10.0334 30.067H5.2041C4.88042 30.067 4.6198 29.8158 4.6198 29.5038C4.6198 29.1918 4.88434 28.9405 5.2041 28.9405H10.0334C10.3532 28.9405 10.6177 29.1918 10.6177 29.5038ZM22.3772 29.5038C22.3772 29.8158 22.1126 30.067 21.7929 30.067H16.9675C16.6438 30.067 16.3832 29.8158 16.3832 29.5038C16.3832 29.1918 16.6477 28.9405 16.9675 28.9405H21.7929C22.1126 28.9405 22.3772 29.1918 22.3772 29.5038Z" fill="#484848"/>
</svg>
