<svg width="24" height="24" viewBox="0 0 24 24" fill="none" xmlns="http://www.w3.org/2000/svg">
<path fill-rule="evenodd" clip-rule="evenodd" d="M18.874 7C18.4299 8.72523 16.8638 10 15 10C13.1362 10 11.5701 8.72523 11.126 7H1C0.447715 7 0 6.55228 0 6C0 5.44772 0.447715 5 1 5H11.126C11.5701 3.27477 13.1362 2 15 2C16.8638 2 18.4299 3.27477 18.874 5H23C23.5523 5 24 5.44772 24 6C24 6.55228 23.5523 7 23 7H18.874ZM13 6C13 7.10457 13.8954 8 15 8C16.1046 8 17 7.10457 17 6C17 4.89543 16.1046 4 15 4C13.8954 4 13 4.89543 13 6Z" fill="#999999"/>
<path fill-rule="evenodd" clip-rule="evenodd" d="M5.12602 19C5.57006 20.7252 7.13616 22 9 22C10.8638 22 12.4299 20.7252 12.874 19H23C23.5523 19 24 18.5523 24 18C24 17.4477 23.5523 17 23 17H12.874C12.4299 15.2748 10.8638 14 9 14C7.13616 14 5.57006 15.2748 5.12602 17H1C0.447716 17 0 17.4477 0 18C0 18.5523 0.447716 19 1 19H5.12602ZM11 18C11 19.1046 10.1046 20 9 20C7.89543 20 7 19.1046 7 18C7 16.8954 7.89543 16 9 16C10.1046 16 11 16.8954 11 18Z" fill="#999999"/>
</svg>
