<svg width="37" height="37" viewBox="0 0 37 37" fill="none" xmlns="http://www.w3.org/2000/svg">
<path d="M5.76172 0.995117H24.3475C24.447 0.995117 24.5423 1.03463 24.6127 1.10495L32.0269 8.51917C32.0972 8.58949 32.1367 8.68487 32.1367 8.78433V35.3701C32.1367 35.5772 31.9688 35.7451 31.7617 35.7451H5.76172C5.55461 35.7451 5.38672 35.5772 5.38672 35.3701V1.37012C5.38672 1.16301 5.55461 0.995117 5.76172 0.995117Z" stroke="#484848" stroke-width="1.25"/>
<path d="M24.2617 0.870117V7.87012C24.2617 8.4224 24.7094 8.87012 25.2617 8.87012H32.2617" stroke="#484848"/>
<path d="M21.7617 27.3701H7.76172L14.7617 18.3701L21.7617 27.3701Z" stroke="#484848" stroke-width="1.25" stroke-linejoin="round"/>
<path d="M23.7617 20.3701L19.7617 24.7701L21.7617 27.3701H29.7617L23.7617 20.3701Z" stroke="#484848" stroke-width="1.25" stroke-linejoin="round"/>
<path fill-rule="evenodd" clip-rule="evenodd" d="M19.7617 16.3701C21.4186 16.3701 22.7617 15.027 22.7617 13.3701C22.7617 11.7133 21.4186 10.3701 19.7617 10.3701C18.1049 10.3701 16.7617 11.7133 16.7617 13.3701C16.7617 15.027 18.1049 16.3701 19.7617 16.3701ZM19.7617 15.3701C20.8663 15.3701 21.7617 14.4747 21.7617 13.3701C21.7617 12.2655 20.8663 11.3701 19.7617 11.3701C18.6571 11.3701 17.7617 12.2655 17.7617 13.3701C17.7617 14.4747 18.6571 15.3701 19.7617 15.3701Z" fill="#484848"/>
</svg>
