<svg width="32" height="30" viewBox="0 0 32 30" fill="none" xmlns="http://www.w3.org/2000/svg">
<path fill-rule="evenodd" clip-rule="evenodd" d="M0 4.00025C0 1.71439 1.67452 0 4.09328 0C6.51204 0 8.0005 1.71439 8.0005 4.00025C8.0005 6.28611 6.32598 8.0005 3.90722 8.0005C1.48847 8.0005 0 6.28611 0 4.00025ZM23.5451 9.99854C19.9856 9.99854 18.4601 11.9341 17.6125 13.2245V10.4824H11.002C11.1715 12.2567 11.002 29.9998 11.002 29.9998H17.6125V19.0314C17.6125 18.3862 17.6125 17.9023 17.782 17.4184C18.2905 16.2893 19.3076 14.9988 21.1721 14.9988C23.5451 14.9988 24.5621 16.7732 24.5621 19.354V29.9998H31.0032V18.7088C31.0032 12.7406 27.7827 9.99854 23.5451 9.99854ZM1 9.99877H7.00038V30H1V9.99877Z" fill="#3577B3"/>
</svg>
