<svg width="32" height="18" viewBox="0 0 32 18" fill="none" xmlns="http://www.w3.org/2000/svg">
<path d="M30.7594 0.242188H1.30749C1.04837 0.242188 0.833984 0.447028 0.833984 0.701645V17.5139C0.833984 17.7683 1.04836 17.9732 1.30749 17.9732H30.7562C31.0185 17.9732 31.2297 17.7683 31.2297 17.5139L31.2299 0.701645C31.2331 0.447034 31.0187 0.242188 30.7596 0.242188H30.7594ZM29.2874 1.16399L16.0334 10.441L2.7793 1.16399H29.2874ZM1.78427 17.0543V1.60151L15.7549 11.3808C15.838 11.4398 15.9341 11.4678 16.0333 11.4678C16.1325 11.4678 16.2286 11.4398 16.3117 11.3808L30.2823 1.60151V17.0543H1.78427Z" fill="#DD052B"/>
</svg>
