<svg width="37" height="37" viewBox="0 0 37 37" fill="none" xmlns="http://www.w3.org/2000/svg">
<path d="M4.63281 1.81738C4.63281 1.61028 4.80071 1.44238 5.00781 1.44238H23.5936C23.6931 1.44238 23.7884 1.48189 23.8588 1.55222L31.273 8.96643C31.3433 9.03676 31.3828 9.13214 31.3828 9.2316V35.8174C31.3828 36.0245 31.2149 36.1924 31.0078 36.1924H5.00781C4.80071 36.1924 4.63281 36.0245 4.63281 35.8174V1.81738Z" stroke="#484848" stroke-width="1.25"/>
<path d="M23.5078 1.31738V8.31738C23.5078 8.86967 23.9555 9.31738 24.5078 9.31738H31.5078" stroke="#484848"/>
<path d="M25.7481 21.6733C25.4279 21.3515 24.7192 21.1806 23.6393 21.166C22.9089 21.1576 22.0292 21.2235 21.1045 21.3561C20.6906 21.1116 20.2631 20.8465 19.9286 20.5262C19.0272 19.6664 18.275 18.4726 17.8056 17.1591C17.8363 17.0365 17.8618 16.9285 17.8866 16.8189C17.8866 16.8189 18.3943 13.8718 18.26 12.8756C18.2413 12.7392 18.23 12.6994 18.194 12.5929L18.1498 12.4772C18.0118 12.1515 17.7411 11.8067 17.3166 11.8258L17.0609 11.8174C16.5877 11.8174 16.2015 12.0649 16.1002 12.4342C15.792 13.5944 16.11 15.3293 16.6859 17.5768L16.5382 17.9431C16.1257 18.9699 15.6098 20.0036 15.1538 20.9162L15.0946 21.035C14.6154 21.9936 14.1796 22.8074 13.7859 23.4971L13.3787 23.717C13.3487 23.7331 12.6513 24.1101 12.4878 24.2113C11.0989 25.0588 10.1788 26.0204 10.0265 26.7837C9.97777 27.0273 10.0138 27.3392 10.2612 27.4833L10.655 27.6856C10.8259 27.7729 11.0059 27.8174 11.1904 27.8174C12.1796 27.8174 13.3277 26.5584 14.9093 23.7377C16.7354 23.13 18.815 22.625 20.6373 22.3469C22.0262 23.1461 23.7338 23.7009 24.8122 23.7009C25.0034 23.7009 25.1684 23.6825 25.3026 23.6457C25.5096 23.5898 25.6836 23.4695 25.7901 23.3055C25.9993 22.9837 26.0413 22.5408 25.9851 22.0871C25.9678 21.9522 25.8628 21.786 25.7488 21.6726L25.7481 21.6733ZM10.9752 27.0511C11.1559 26.5469 11.8691 25.5507 12.925 24.6672C12.991 24.612 13.1545 24.4557 13.3045 24.3101C12.2006 26.1093 11.4611 26.8258 10.9752 27.0511ZM17.2274 12.3392C17.5453 12.3392 17.7261 13.1584 17.7411 13.9254C17.7561 14.6925 17.5806 15.2319 17.3624 15.6304C17.1816 15.0404 17.0946 14.1101 17.0946 13.5017C17.0946 13.5017 17.0811 12.3392 17.2274 12.3392ZM15.3623 22.8235C15.5835 22.4181 15.8145 21.9913 16.05 21.5385C16.6237 20.4296 16.9866 19.5614 17.2566 18.848C17.7936 19.8465 18.4625 20.6948 19.2484 21.3745C19.3467 21.4595 19.4502 21.5446 19.5597 21.6296C17.9608 21.953 16.5794 22.3461 15.363 22.8235H15.3623ZM25.4406 22.7316C25.3431 22.7936 25.0642 22.8296 24.8849 22.8296C24.306 22.8296 23.5898 22.5591 22.5856 22.1193C22.9718 22.0902 23.3251 22.0756 23.6423 22.0756C24.2227 22.0756 24.3952 22.0733 24.9629 22.2212C25.5306 22.3691 25.5381 22.6695 25.4406 22.7323V22.7316Z" fill="#484848"/>
</svg>
