<svg width="19" height="22" viewBox="0 0 19 22" fill="none" xmlns="http://www.w3.org/2000/svg">
<path d="M16.2834 12.3071C16.0113 12.0325 15.409 11.8866 14.4912 11.8742C13.8705 11.867 13.1229 11.9232 12.337 12.0364C11.9852 11.8278 11.6219 11.6015 11.3376 11.3281C10.5716 10.5943 9.9323 9.57541 9.53333 8.45447C9.55946 8.34983 9.58113 8.25762 9.60216 8.1641C9.60216 8.1641 10.0336 5.64886 9.91956 4.79867C9.90362 4.68226 9.89406 4.64825 9.86347 4.55735L9.82587 4.45859C9.70859 4.18065 9.47851 3.88635 9.11778 3.9027L8.90044 3.89551C8.49828 3.89551 8.17004 4.10675 8.084 4.42197C7.82205 5.41211 8.09229 6.89274 8.58177 8.8109L8.45621 9.1235C8.10567 9.99985 7.66718 10.8821 7.27967 11.661L7.22932 11.7624C6.82206 12.5805 6.45176 13.275 6.11716 13.8636L5.77108 14.0513C5.74558 14.0651 5.15285 14.3868 5.01391 14.4731C3.83355 15.1965 3.05153 16.0172 2.92215 16.6686C2.88072 16.8766 2.91131 17.1427 3.12164 17.2657L3.45624 17.4383C3.60156 17.5129 3.75452 17.5508 3.91131 17.5508C4.75196 17.5508 5.72774 16.4763 7.0719 14.069C8.62383 13.5504 10.3912 13.1194 11.9399 12.882C13.1203 13.5641 14.5715 14.0376 15.488 14.0376C15.6506 14.0376 15.7908 14.0219 15.9049 13.9905C16.0808 13.9428 16.2286 13.8401 16.3191 13.7001C16.497 13.4255 16.5326 13.0474 16.4848 12.6603C16.4702 12.5452 16.381 12.4033 16.2841 12.3065L16.2834 12.3071ZM3.72839 16.8968C3.88199 16.4665 4.4881 15.6163 5.38548 14.8623C5.44157 14.8152 5.58051 14.6818 5.70798 14.5575C4.76981 16.0931 4.14139 16.7046 3.72839 16.8968ZM9.04193 4.34087C9.31217 4.34087 9.46577 5.03999 9.47851 5.69463C9.49126 6.34928 9.34212 6.80969 9.15665 7.14976C9.00305 6.64619 8.92912 5.85225 8.92912 5.33298C8.92912 5.33298 8.91765 4.34087 9.04193 4.34087ZM7.45686 13.2888C7.64487 12.9428 7.84117 12.5785 8.0413 12.192C8.52887 11.2457 8.83734 10.5047 9.06679 9.89587C9.52313 10.748 10.0916 11.472 10.7596 12.0521C10.8431 12.1247 10.931 12.1973 11.0241 12.2699C9.66526 12.5458 8.49127 12.8813 7.45749 13.2888H7.45686ZM16.0221 13.2103C15.9393 13.2633 15.7022 13.294 15.5499 13.294C15.0578 13.294 14.4492 13.0631 13.5958 12.6878C13.924 12.6629 14.2242 12.6505 14.4938 12.6505C14.9871 12.6505 15.1337 12.6485 15.6161 12.7747C16.0986 12.901 16.105 13.1573 16.0221 13.2109V13.2103Z" fill="#DD052B"/>
<path d="M17.7921 4.94192C17.3498 4.3226 16.7328 3.59928 16.056 2.90409C15.3791 2.2089 14.6736 1.57649 14.07 1.12262C13.0426 0.349606 12.5448 0.26001 12.2593 0.26001H2.38047C1.50221 0.26001 0.787109 0.993133 0.787109 1.89498V19.5527C0.787109 20.4539 1.50157 21.1877 2.38047 21.1877H17.0394C17.9177 21.1877 18.6328 20.4539 18.6328 19.5527V6.79991C18.6328 6.50692 18.5454 5.9955 17.7921 4.94192ZM15.1548 3.82883C15.766 4.45601 16.2459 5.02237 16.6003 5.49193H13.534V2.34558C13.9916 2.7092 14.5436 3.20166 15.1548 3.82883ZM17.3581 19.5527C17.3581 19.7299 17.2121 19.8797 17.0394 19.8797H2.38047C2.20775 19.8797 2.0618 19.7299 2.0618 19.5527V1.89498C2.0618 1.71775 2.20775 1.56799 2.38047 1.56799C2.38047 1.56799 12.2587 1.56799 12.2593 1.56799V6.14592C12.2593 6.50692 12.5448 6.79991 12.8967 6.79991H17.3581V19.5527Z" fill="#DD052B"/>
</svg>
