<svg width="23" height="23" viewBox="0 0 23 23" fill="none" xmlns="http://www.w3.org/2000/svg">
<path d="M0 1.62008C0.0988281 1.2083 0.250065 0.825015 0.567513 0.524989C0.938867 0.173959 1.38359 0.00594407 1.88971 0.00444394C3.26657 0.000693618 4.64342 -0.00380677 6.02028 0.00519401C7.09017 0.0126947 7.87106 0.756759 7.90475 1.82485C7.94893 3.22222 8.13835 4.59184 8.55986 5.92846C8.77624 6.61477 8.61751 7.22382 8.1638 7.79162C7.52441 8.59194 6.92171 9.42151 6.31003 10.2436C6.2696 10.2976 6.25986 10.4169 6.29131 10.4754C7.14632 12.0602 8.17803 13.5101 9.55264 14.6922C10.4638 15.476 11.4603 16.1346 12.5167 16.7024C12.5766 16.7346 12.6964 16.7316 12.7488 16.6926C13.6008 16.0581 14.4514 15.422 15.2907 14.7717C15.7743 14.3974 16.3104 14.2804 16.8944 14.4094C17.5577 14.5565 18.2076 14.7687 18.8754 14.8842C19.5215 14.9967 20.1826 15.0763 20.837 15.0755C21.8904 15.074 22.7439 15.5308 22.9978 16.7106V21.3821C22.8697 21.6776 22.7761 21.9956 22.6047 22.2641C22.3262 22.6999 21.8695 22.8874 21.3806 22.9992H20.2575C20.1841 22.9879 20.1115 22.9737 20.0382 22.9654C19.2063 22.8717 18.3693 22.8117 17.5442 22.6782C15.2442 22.3046 13.073 21.5381 11.0343 20.4145C7.80443 18.6353 5.19671 16.1864 3.23138 13.0631C1.52135 10.3441 0.493392 7.38284 0.134766 4.18981C0.0808594 3.70827 0.0441732 3.22522 0 2.74218V1.61933V1.62008Z" fill="white"/>
</svg>
