<svg width="22" height="21" viewBox="0 0 22 21" fill="none" xmlns="http://www.w3.org/2000/svg">
<path d="M19.7532 17.9178C19.0495 17.9178 18.4785 17.3318 18.4785 16.6098V11.3779C18.4785 7.04391 15.054 3.53002 10.8303 3.53002C6.60665 3.53002 3.18219 7.04391 3.18219 11.3779V16.6098C3.18219 17.3318 2.61113 17.9178 1.9075 17.9178C1.20387 17.9178 0.632812 17.3318 0.632812 16.6098V11.3779C0.632812 5.59859 5.19875 0.914062 10.8303 0.914062C16.4619 0.914062 21.0278 5.59859 21.0278 11.3779V16.6098C21.0278 17.3318 20.4568 17.9178 19.7532 17.9178ZM5.09423 12.6859H6.36892C6.72073 12.6859 7.00626 12.9782 7.00626 13.3399V19.8798C7.00626 20.2414 6.72073 20.5338 6.36892 20.5338H5.09423C4.74241 20.5338 4.45688 20.2414 4.45688 19.8798V13.3399C4.45688 12.9782 4.74241 12.6859 5.09423 12.6859ZM15.2917 12.6859H16.5664C16.9189 12.6859 17.2038 12.9782 17.2038 13.3399V19.8798C17.2038 20.2414 16.9189 20.5338 16.5664 20.5338H15.2917C14.9393 20.5338 14.6544 20.2414 14.6544 19.8798V13.3399C14.6544 12.9782 14.9393 12.6859 15.2917 12.6859Z" fill="#DD052B"/>
</svg>
