<svg width="37" height="37" viewBox="0 0 37 37" fill="none" xmlns="http://www.w3.org/2000/svg">
<path d="M5.38672 1.09375C5.38672 0.886643 5.55461 0.71875 5.76172 0.71875H24.3475C24.447 0.71875 24.5423 0.758258 24.6127 0.828585L32.0269 8.2428C32.0972 8.31312 32.1367 8.40851 32.1367 8.50796V35.0938C32.1367 35.3009 31.9688 35.4688 31.7617 35.4688H5.76172C5.55461 35.4688 5.38672 35.3009 5.38672 35.0938V1.09375Z" stroke="#484848" stroke-width="1.25"/>
<path d="M24.2617 0.59375V7.59375C24.2617 8.14603 24.7094 8.59375 25.2617 8.59375H32.2617" stroke="#484848"/>
<path fill-rule="evenodd" clip-rule="evenodd" d="M17.2617 13.0938C16.9856 13.0938 16.7617 13.3176 16.7617 13.5938V16.5938C16.7617 16.8699 16.9856 17.0938 17.2617 17.0938H20.2617C20.5379 17.0938 20.7617 16.8699 20.7617 16.5938V13.5938C20.7617 13.3176 20.5379 13.0938 20.2617 13.0938H17.2617ZM19.7617 14.0938H17.7617V16.0938H19.7617V14.0938Z" fill="#484848"/>
<path fill-rule="evenodd" clip-rule="evenodd" d="M25.2617 23.0938C24.9856 23.0938 24.7617 23.3176 24.7617 23.5938V26.5938C24.7617 26.8699 24.9856 27.0938 25.2617 27.0938H28.2617C28.5379 27.0938 28.7617 26.8699 28.7617 26.5938V23.5938C28.7617 23.3176 28.5379 23.0938 28.2617 23.0938H25.2617ZM27.7617 24.0938H25.7617V26.0938H27.7617V24.0938Z" fill="#484848"/>
<path fill-rule="evenodd" clip-rule="evenodd" d="M9.26172 23.0938C8.98558 23.0938 8.76172 23.3176 8.76172 23.5938V26.5938C8.76172 26.8699 8.98558 27.0938 9.26172 27.0938H12.2617C12.5379 27.0938 12.7617 26.8699 12.7617 26.5938V23.5938C12.7617 23.3176 12.5379 23.0938 12.2617 23.0938H9.26172ZM11.7617 24.0938H9.76172V26.0938H11.7617V24.0938Z" fill="#484848"/>
<path d="M20.7617 15.0938C20.7617 15.0938 26.7617 16.0938 26.7617 23.0938" stroke="#484848" stroke-linecap="round"/>
<path d="M16.7617 15.0938C16.7617 15.0938 10.7617 16.0938 10.7617 23.0938" stroke="#484848" stroke-linecap="round"/>
<path fill-rule="evenodd" clip-rule="evenodd" d="M26.7617 17.0938C27.8663 17.0938 28.7617 16.1983 28.7617 15.0938C28.7617 13.9892 27.8663 13.0938 26.7617 13.0938C25.6571 13.0938 24.7617 13.9892 24.7617 15.0938C24.7617 16.1983 25.6571 17.0938 26.7617 17.0938ZM26.7617 16.0938C27.314 16.0938 27.7617 15.646 27.7617 15.0938C27.7617 14.5415 27.314 14.0938 26.7617 14.0938C26.2094 14.0938 25.7617 14.5415 25.7617 15.0938C25.7617 15.646 26.2094 16.0938 26.7617 16.0938Z" fill="#484848"/>
<path fill-rule="evenodd" clip-rule="evenodd" d="M10.7617 17.0938C11.8663 17.0938 12.7617 16.1983 12.7617 15.0938C12.7617 13.9892 11.8663 13.0938 10.7617 13.0938C9.65715 13.0938 8.76172 13.9892 8.76172 15.0938C8.76172 16.1983 9.65715 17.0938 10.7617 17.0938ZM10.7617 16.0938C11.314 16.0938 11.7617 15.646 11.7617 15.0938C11.7617 14.5415 11.314 14.0938 10.7617 14.0938C10.2094 14.0938 9.76172 14.5415 9.76172 15.0938C9.76172 15.646 10.2094 16.0938 10.7617 16.0938Z" fill="#484848"/>
<path d="M20.7617 15.0938H25.7617" stroke="#484848"/>
<path d="M11.7617 15.0938H16.7617" stroke="#484848"/>
</svg>
