<svg width="34" height="30" viewBox="0 0 34 30" fill="none" xmlns="http://www.w3.org/2000/svg">
<path d="M34 3.55093C32.7498 4.15392 31.4052 4.5608 29.9935 4.74334C31.4341 3.80668 32.5398 2.32263 33.0608 0.553231C31.7128 1.42148 30.2206 2.05189 28.6313 2.39179C27.3592 0.919879 25.5461 0 23.54 0C19.6877 0 16.5645 3.39102 16.5645 7.57349C16.5645 8.16696 16.6261 8.74469 16.7451 9.29897C10.9477 8.98358 5.80745 5.96872 2.36708 1.38634C1.76684 2.50449 1.42279 3.80525 1.42279 5.19376C1.42279 7.82114 2.65419 10.1391 4.52587 11.4976C3.38274 11.4577 2.30669 11.1175 1.36647 10.5499C1.36585 10.5814 1.36585 10.6132 1.36585 10.6458C1.36585 14.3145 3.77034 17.3755 6.96169 18.0718C6.37629 18.2445 5.75997 18.3374 5.1237 18.3374C4.67377 18.3374 4.23703 18.2902 3.81106 18.2013C4.6991 21.21 7.2751 23.3998 10.327 23.4609C7.93967 25.4923 4.93224 26.703 1.66373 26.703C1.10096 26.703 0.545926 26.6667 0 26.5973C3.08755 28.7464 6.75375 30 10.6929 30C23.5237 30 30.5394 18.4596 30.5394 8.45156C30.5394 8.12372 30.5333 7.79627 30.5199 7.47173C31.8823 6.40408 33.0655 5.07012 34 3.55093Z" fill="#53A9DC"/>
</svg>
