<svg width="42" height="31" viewBox="0 0 42 31" fill="none" xmlns="http://www.w3.org/2000/svg">
<path d="M40.2739 5.0762C39.8024 3.23216 38.4134 1.78011 36.6493 1.28734C33.4516 0.391602 20.6307 0.391602 20.6307 0.391602C20.6307 0.391602 7.80979 0.391602 4.61203 1.28734C2.84831 1.78011 1.45888 3.23216 0.987375 5.0762C0.130859 8.4184 0.130859 15.3918 0.130859 15.3918C0.130859 15.3918 0.130859 22.3651 0.987375 25.707C1.45888 27.551 2.84831 29.0034 4.61203 29.4962C7.80979 30.3916 20.6307 30.3916 20.6307 30.3916C20.6307 30.3916 33.4516 30.3916 36.6493 29.4962C38.4134 29.0034 39.8024 27.551 40.2739 25.707C41.1309 22.3651 41.1309 15.3918 41.1309 15.3918C41.1309 15.3918 41.1309 8.4184 40.2739 5.0762Z" fill="#FF0000"/>
<path d="M17.478 22.0579L28.5165 15.3913L17.478 8.72461L17.478 22.0579Z" fill="white"/>
</svg>
