<svg width="37" height="37" viewBox="0 0 37 37" fill="none" xmlns="http://www.w3.org/2000/svg">
<path d="M5.38672 1.81738C5.38672 1.61028 5.55461 1.44238 5.76172 1.44238H24.3475C24.447 1.44238 24.5423 1.48189 24.6127 1.55222L32.0269 8.96643C32.0972 9.03676 32.1367 9.13214 32.1367 9.2316V35.8174C32.1367 36.0245 31.9688 36.1924 31.7617 36.1924H5.76172C5.55461 36.1924 5.38672 36.0245 5.38672 35.8174V1.81738Z" stroke="#484848" stroke-width="1.25"/>
<path d="M24.2617 1.31738V8.31738C24.2617 8.86967 24.7094 9.31738 25.2617 9.31738H32.2617" stroke="#484848"/>
<rect x="16.7617" y="33.8174" width="2" height="1" rx="0.5" fill="#484848"/>
<rect x="16.7617" y="31.8174" width="2" height="1" rx="0.5" fill="#484848"/>
<rect x="16.7617" y="29.8174" width="2" height="1" rx="0.5" fill="#484848"/>
<rect x="16.7617" y="27.8174" width="2" height="1" rx="0.5" fill="#484848"/>
<rect x="16.7617" y="25.8174" width="2" height="1" rx="0.5" fill="#484848"/>
<rect x="16.7617" y="23.8174" width="2" height="1" rx="0.5" fill="#484848"/>
<rect x="18.7617" y="32.8174" width="2" height="1" rx="0.5" fill="#484848"/>
<rect x="18.7617" y="30.8174" width="2" height="1" rx="0.5" fill="#484848"/>
<rect x="18.7617" y="28.8174" width="2" height="1" rx="0.5" fill="#484848"/>
<rect x="18.7617" y="26.8174" width="2" height="1" rx="0.5" fill="#484848"/>
<rect x="18.7617" y="24.8174" width="2" height="1" rx="0.5" fill="#484848"/>
<rect x="18.7617" y="34.8174" width="2" height="1" rx="0.5" fill="#484848"/>
<path fill-rule="evenodd" clip-rule="evenodd" d="M16.7617 15.8174C16.2094 15.8174 15.7617 16.2651 15.7617 16.8174V21.8174C15.7617 22.3697 16.2094 22.8174 16.7617 22.8174H20.7617C21.314 22.8174 21.7617 22.3697 21.7617 21.8174V16.8174C21.7617 16.2651 21.314 15.8174 20.7617 15.8174H16.7617ZM20.7617 16.8174H16.7617V21.8174H20.7617V16.8174Z" fill="#484848"/>
<rect x="16.7617" y="17.8174" width="4" height="1" fill="#484848"/>
</svg>
